REM MD5 fc0e02b6f2221b6e84e86fa41a193be1
FILE "Langrisser IV & V - Final Edition (Japan) (Disc 1) (Langrisser IV Disc).bin" BINARY
  TRACK 01 MODE2/2352
    INDEX 01 00:00:00
  TRACK 02 AUDIO
    INDEX 00 54:27:17
    INDEX 01 54:29:17
  TRACK 03 AUDIO
    INDEX 00 56:39:44
    INDEX 01 56:41:44
REM LEADOUT 61:21:39
